<svg width="1200" height="675" viewBox="0 0 1200 675" fill="none" xmlns="http://www.w3.org/2000/svg">
  <defs>
    <linearGradient id="bg" x1="0" y1="0" x2="1200" y2="675" gradientUnits="userSpaceOnUse">
      <stop stop-color="#050505" />
      <stop offset="1" stop-color="#0F172A" />
    </linearGradient>
    <radialGradient id="glowA" cx="0" cy="0" r="1" gradientUnits="userSpaceOnUse" gradientTransform="translate(300 220) rotate(45) scale(320 260)">
      <stop stop-color="#3B82F6" stop-opacity="0.45" />
      <stop offset="1" stop-color="#3B82F6" stop-opacity="0" />
    </radialGradient>
    <radialGradient id="glowB" cx="0" cy="0" r="1" gradientUnits="userSpaceOnUse" gradientTransform="translate(860 430) rotate(-20) scale(260 220)">
      <stop stop-color="#10B981" stop-opacity="0.3" />
      <stop offset="1" stop-color="#10B981" stop-opacity="0" />
    </radialGradient>
  </defs>
  <rect width="1200" height="675" rx="32" fill="url(#bg)" />
  <rect width="1200" height="675" rx="32" fill="url(#glowA)" />
  <rect width="1200" height="675" rx="32" fill="url(#glowB)" />
  <g opacity="0.22" stroke="#EDEDED" stroke-width="1">
    <path d="M120 150H1080" />
    <path d="M120 225H1080" />
    <path d="M120 300H1080" />
    <path d="M120 375H1080" />
    <path d="M120 450H1080" />
    <path d="M120 525H1080" />
    <path d="M150 110V565" />
    <path d="M250 110V565" />
    <path d="M350 110V565" />
    <path d="M450 110V565" />
    <path d="M550 110V565" />
    <path d="M650 110V565" />
    <path d="M750 110V565" />
    <path d="M850 110V565" />
    <path d="M950 110V565" />
    <path d="M1050 110V565" />
  </g>
  <g opacity="0.6">
    <rect x="150" y="140" width="240" height="160" rx="24" fill="#111827" stroke="#3B82F6" stroke-opacity="0.45" />
    <rect x="460" y="170" width="290" height="220" rx="28" fill="#0B1220" stroke="#10B981" stroke-opacity="0.35" />
    <rect x="805" y="220" width="180" height="180" rx="28" fill="#111827" stroke="#F59E0B" stroke-opacity="0.35" />
  </g>
  <circle cx="365" cy="470" r="90" fill="#3B82F6" fill-opacity="0.18" />
  <circle cx="790" cy="465" r="120" fill="#10B981" fill-opacity="0.14" />
  <path d="M190 500C280 430 380 430 470 500" stroke="#EDEDED" stroke-opacity="0.35" stroke-width="3" stroke-linecap="round" />
  <path d="M500 510C610 390 720 390 830 510" stroke="#EDEDED" stroke-opacity="0.25" stroke-width="3" stroke-linecap="round" />
</svg>
